<svg width="80" height="80" viewBox="0 0 80 80" fill="none" xmlns="http://www.w3.org/2000/svg">
<g filter="url(#filter0_dd_128_38)">
<path d="M12 16C12 8.26801 18.268 2 26 2H54C61.732 2 68 8.26801 68 16V44C68 51.732 61.732 58 54 58H26C18.268 58 12 51.732 12 44V16Z" fill="url(#paint0_linear_128_38)" shape-rendering="crispEdges"/>
<path d="M27.4478 37.2187C26.9477 37.7187 26.6667 38.3969 26.6665 39.104V42C26.6665 42.3537 26.807 42.6928 27.057 42.9429C27.3071 43.1929 27.6462 43.3334 27.9998 43.3334H31.9998C32.3535 43.3334 32.6926 43.1929 32.9426 42.9429C33.1927 42.6928 33.3332 42.3537 33.3332 42V40.6667C33.3332 40.3131 33.4736 39.974 33.7237 39.7239C33.9737 39.4739 34.3129 39.3334 34.6665 39.3334H35.9998C36.3535 39.3334 36.6926 39.1929 36.9426 38.9429C37.1927 38.6928 37.3332 38.3537 37.3332 38V36.6667C37.3332 36.3131 37.4736 35.974 37.7237 35.7239C37.9737 35.4739 38.3129 35.3334 38.6665 35.3334H38.8958C39.603 35.3332 40.2812 35.0522 40.7812 34.552L41.8665 33.4667C43.7196 34.1122 45.7369 34.1098 47.5885 33.4597C49.44 32.8097 51.0161 31.5505 52.059 29.8882C53.1018 28.2259 53.5497 26.2589 53.3293 24.309C53.1089 22.3591 52.2333 20.5417 50.8457 19.1541C49.4582 17.7666 47.6408 16.891 45.6909 16.6706C43.7409 16.4502 41.774 16.898 40.1117 17.9409C38.4494 18.9838 37.1902 20.5599 36.5402 22.4114C35.8901 24.2629 35.8876 26.2803 36.5332 28.1334L27.4478 37.2187Z" stroke="white" stroke-width="2.66667" stroke-linecap="round" stroke-linejoin="round"/>
<path d="M46.0002 24.6667C46.3684 24.6667 46.6668 24.3682 46.6668 24C46.6668 23.6319 46.3684 23.3334 46.0002 23.3334C45.632 23.3334 45.3335 23.6319 45.3335 24C45.3335 24.3682 45.632 24.6667 46.0002 24.6667Z" fill="white" stroke="white" stroke-width="2.66667" stroke-linecap="round" stroke-linejoin="round"/>
</g>
<defs>
<filter id="filter0_dd_128_38" x="0" y="0" width="80" height="80" filterUnits="userSpaceOnUse" color-interpolation-filters="sRGB">
<feFlood flood-opacity="0" result="BackgroundImageFix"/>
<feColorMatrix in="SourceAlpha" type="matrix" values="0 0 0 0 0 0 0 0 0 0 0 0 0 0 0 0 0 0 127 0" result="hardAlpha"/>
<feMorphology radius="4" operator="erode" in="SourceAlpha" result="effect1_dropShadow_128_38"/>
<feOffset dy="4"/>
<feGaussianBlur stdDeviation="3"/>
<feComposite in2="hardAlpha" operator="out"/>
<feColorMatrix type="matrix" values="0 0 0 0 0 0 0 0 0 0 0 0 0 0 0 0 0 0 0.1 0"/>
<feBlend mode="normal" in2="BackgroundImageFix" result="effect1_dropShadow_128_38"/>
<feColorMatrix in="SourceAlpha" type="matrix" values="0 0 0 0 0 0 0 0 0 0 0 0 0 0 0 0 0 0 127 0" result="hardAlpha"/>
<feMorphology radius="3" operator="erode" in="SourceAlpha" result="effect2_dropShadow_128_38"/>
<feOffset dy="10"/>
<feGaussianBlur stdDeviation="7.5"/>
<feComposite in2="hardAlpha" operator="out"/>
<feColorMatrix type="matrix" values="0 0 0 0 0 0 0 0 0 0 0 0 0 0 0 0 0 0 0.1 0"/>
<feBlend mode="normal" in2="effect1_dropShadow_128_38" result="effect2_dropShadow_128_38"/>
<feBlend mode="normal" in="SourceGraphic" in2="effect2_dropShadow_128_38" result="shape"/>
</filter>
<linearGradient id="paint0_linear_128_38" x1="12" y1="30" x2="68" y2="30" gradientUnits="userSpaceOnUse">
<stop stop-color="#9810FA"/>
<stop offset="1" stop-color="#0092B8"/>
</linearGradient>
</defs>
</svg>
