<svg width="64" height="64" viewBox="0 0 64 64" fill="none" xmlns="http://www.w3.org/2000/svg">
<path d="M0 14C0 6.26801 6.26801 0 14 0H50C57.732 0 64 6.26801 64 14V50C64 57.732 57.732 64 50 64H14C6.26801 64 0 57.732 0 50V14Z" fill="url(#paint0_linear_1_207)"/>
<path d="M41.3332 44V41.3333C41.3332 39.9188 40.7713 38.5623 39.7711 37.5621C38.7709 36.5619 37.4143 36 35.9998 36H27.9998C26.5853 36 25.2288 36.5619 24.2286 37.5621C23.2284 38.5623 22.6665 39.9188 22.6665 41.3333V44" stroke="white" stroke-width="2.66667" stroke-linecap="round" stroke-linejoin="round"/>
<path d="M31.9998 30.6667C34.9454 30.6667 37.3332 28.2789 37.3332 25.3333C37.3332 22.3878 34.9454 20 31.9998 20C29.0543 20 26.6665 22.3878 26.6665 25.3333C26.6665 28.2789 29.0543 30.6667 31.9998 30.6667Z" stroke="white" stroke-width="2.66667" stroke-linecap="round" stroke-linejoin="round"/>
<defs>
<linearGradient id="paint0_linear_1_207" x1="0" y1="32" x2="64" y2="32" gradientUnits="userSpaceOnUse">
<stop stop-color="#9810FA"/>
<stop offset="1" stop-color="#0092B8"/>
</linearGradient>
</defs>
</svg>
